<svg width="263" height="47" viewBox="0 0 263 47" fill="none" xmlns="http://www.w3.org/2000/svg">
<path d="M93.4674 21H96.0925V12.4029C96.0925 11.2945 96.3769 10.281 96.9456 9.36218L99.2426 5.68707H102.065L98.5425 11.1341C97.8571 12.1987 97.0404 12.8185 96.0925 12.9935C95.6987 13.0664 95.2831 13.1029 94.8456 13.1029C94.3206 13.1029 93.8612 13.0592 93.4674 12.9717C92.5195 12.7675 91.7174 12.155 91.0611 11.1341L87.4735 5.68707H90.4486L92.7674 9.36218C93.2341 10.1059 93.4674 11.1195 93.4674 12.4029V21ZM103.407 21V5.68707H106.032V21H103.407ZM112.299 21L107.88 5.68707H110.483L113.064 15.1373C113.312 15.9978 113.545 16.9895 113.764 18.1124C113.895 17.3978 114.136 16.4207 114.486 15.1811L117.199 5.68707H119.846L122.536 15.1811C122.886 16.3915 123.127 17.3541 123.258 18.0687C123.448 17.1353 123.681 16.1655 123.958 15.1592L126.518 5.68707H129.077L124.571 21H121.902L119.233 11.6154C118.883 10.3757 118.628 9.36947 118.467 8.59653C118.292 9.48614 118.045 10.4705 117.724 11.5497L114.989 21H112.299ZM142.124 19.6437C141.03 20.7229 139.404 21.2625 137.245 21.2625C135.087 21.2625 133.461 20.7229 132.367 19.6437C131.273 18.5499 130.727 16.9603 130.727 14.8748V5.68707H133.352V14.5248C133.352 16.0853 133.672 17.2447 134.314 18.003C134.956 18.7468 135.933 19.1187 137.245 19.1187C138.558 19.1187 139.535 18.7468 140.177 18.003C140.818 17.2447 141.139 16.0853 141.139 14.5248V5.68707H143.764V14.8748C143.764 16.9603 143.217 18.5499 142.124 19.6437ZM149.278 21L154.835 5.68707H157.81L163.344 21H160.654L159.254 16.8874H153.325L151.925 21H149.278ZM154.025 14.8311H158.554L157.175 10.7841C156.811 9.73406 156.519 8.82987 156.3 8.07152L155.404 10.7622L154.025 14.8311ZM165.018 21V5.68707H168.19L174.162 14.8967C174.73 15.7863 175.306 16.7561 175.89 17.8062C175.817 16.3186 175.78 14.5977 175.78 12.6435V5.68707H178.252V21H175.299L169.065 11.506C168.423 10.5289 167.869 9.59552 167.402 8.70591C167.46 10.3685 167.49 12.1987 167.49 14.1967V21H165.018ZM187.901 21.2625C185.656 21.2625 183.855 20.5406 182.498 19.0968C181.157 17.653 180.486 15.728 180.486 13.3217C180.486 10.9008 181.164 8.983 182.52 7.56838C183.876 6.13917 185.721 5.42457 188.055 5.42457C189.921 5.42457 191.438 5.89854 192.605 6.84648C193.786 7.79443 194.508 9.12884 194.77 10.8497H192.145C191.679 8.60382 190.293 7.48087 187.989 7.48087C186.458 7.48087 185.276 7.99131 184.445 9.01217C183.614 10.0184 183.198 11.4549 183.198 13.3217C183.198 15.1592 183.614 16.5957 184.445 17.6312C185.291 18.6666 186.472 19.1843 187.989 19.1843C190.439 19.1843 191.876 17.8718 192.298 15.2467H194.945C194.741 17.1134 194.012 18.5864 192.758 19.6656C191.504 20.7302 189.885 21.2625 187.901 21.2625ZM196.668 17.0843C196.668 16.1363 196.858 15.429 197.237 14.9623C197.616 14.4957 198.302 14.2186 199.293 14.1311V21H196.668V17.0843ZM196.668 9.01217V5.68707H199.293V11.9435C198.302 11.856 197.616 11.5789 197.237 11.1122C196.858 10.6455 196.668 9.94553 196.668 9.01217ZM199.293 14.1311C199.439 14.1165 199.658 14.1092 199.949 14.1092H206.381C206.673 14.1092 206.891 14.1165 207.037 14.1311C208.029 14.2186 208.714 14.4957 209.093 14.9623C209.473 15.429 209.662 16.1363 209.662 17.0843V21H207.037V5.68707H209.662V9.01217C209.662 9.94553 209.473 10.6455 209.093 11.1122C208.714 11.5789 208.029 11.856 207.037 11.9435C206.891 11.9581 206.673 11.9654 206.381 11.9654H199.949C199.658 11.9654 199.439 11.9581 199.293 11.9435V14.1311ZM210.996 21L216.552 5.68707H219.527L225.062 21H222.371L220.971 16.8874H215.043L213.643 21H210.996ZM215.743 14.8311H220.271L218.893 10.7841C218.528 9.73406 218.237 8.82987 218.018 8.07152L217.121 10.7622L215.743 14.8311ZM226.714 21V5.68707H229.886L235.858 14.8967C236.426 15.7863 237.002 16.7561 237.586 17.8062C237.513 16.3186 237.476 14.5977 237.476 12.6435V5.68707H239.948V21H236.995L230.761 11.506C230.119 10.5289 229.565 9.59552 229.098 8.70591C229.156 10.3685 229.186 12.1987 229.186 14.1967V21H226.714ZM249.745 21.2625C247.514 21.2625 245.727 20.5406 244.386 19.0968C243.058 17.653 242.395 15.7353 242.395 13.3435C242.395 10.9226 243.08 8.99758 244.451 7.56838C245.837 6.13917 247.696 5.42457 250.029 5.42457C251.896 5.42457 253.427 5.91312 254.623 6.89023C255.819 7.85276 256.563 9.17259 256.855 10.8497H254.208C253.96 9.71219 253.457 8.86633 252.698 8.31215C251.954 7.75797 251.014 7.48087 249.876 7.48087C248.316 7.48087 247.113 7.9986 246.267 9.03404C245.436 10.0549 245.02 11.4841 245.02 13.3217C245.02 15.203 245.457 16.6468 246.332 17.653C247.207 18.6593 248.44 19.1624 250.029 19.1624C251.4 19.1624 252.479 18.7833 253.267 18.0249C254.069 17.252 254.47 16.2165 254.47 14.9186V14.8092H249.745V12.7966H256.876V21H254.645V19.0093C253.595 20.5114 251.962 21.2625 249.745 21.2625Z" fill="white"/>
<path d="M88.5348 43.2474V33.6734H90.1761V43.2474H88.5348ZM92.1277 43.2474V33.6734H94.5486L96.4223 38.8707C96.8691 40.0925 97.17 41.0317 97.325 41.6882C97.5165 41.0317 97.8311 40.0788 98.2688 38.8297L100.101 33.6734H102.509V43.2474H100.977V39.24C100.977 38.2735 101.004 36.8419 101.059 34.9454C100.913 35.5016 100.662 36.2675 100.307 37.2431L98.1183 43.2474H96.4771L94.3024 37.2842C94.0653 36.6368 93.8146 35.8572 93.5502 34.9454C93.6049 36.0851 93.6322 37.5167 93.6322 39.24V43.2474H92.1277ZM104.589 43.2474V33.6734H108.734C109.855 33.6734 110.712 33.9241 111.305 34.4256C111.907 34.918 112.208 35.6338 112.208 36.5729C112.208 37.5121 111.907 38.2324 111.305 38.7339C110.712 39.2263 109.855 39.4725 108.734 39.4725H106.231V43.2474H104.589ZM106.231 38.1868H108.569C109.244 38.1868 109.746 38.0592 110.074 37.8039C110.402 37.5486 110.566 37.1383 110.566 36.5729C110.566 36.0076 110.402 35.5973 110.074 35.342C109.746 35.0867 109.244 34.959 108.569 34.959H106.231V38.1868ZM121.144 42.0575C120.287 42.9602 119.138 43.4115 117.697 43.4115C116.256 43.4115 115.103 42.9602 114.237 42.0575C113.38 41.1548 112.951 39.9512 112.951 38.4467C112.951 36.9422 113.38 35.7432 114.237 34.8496C115.103 33.9561 116.256 33.5093 117.697 33.5093C119.138 33.5093 120.287 33.9561 121.144 34.8496C122.01 35.7432 122.443 36.9422 122.443 38.4467C122.443 39.9512 122.01 41.1548 121.144 42.0575ZM115.427 41.1411C115.956 41.7611 116.712 42.0711 117.697 42.0711C118.682 42.0711 119.434 41.7611 119.954 41.1411C120.483 40.512 120.747 39.6138 120.747 38.4467C120.747 37.2887 120.483 36.3997 119.954 35.7797C119.434 35.1596 118.682 34.8496 117.697 34.8496C116.712 34.8496 115.956 35.1596 115.427 35.7797C114.907 36.3997 114.647 37.2887 114.647 38.4467C114.647 39.6138 114.907 40.512 115.427 41.1411ZM123.97 43.2474V33.6734H128.36C129.336 33.6734 130.111 33.8968 130.685 34.3436C131.26 34.7904 131.547 35.3922 131.547 36.149C131.547 36.7325 131.387 37.2294 131.068 37.6398C130.749 38.0501 130.307 38.3419 129.742 38.5151C130.024 38.5698 130.266 38.6564 130.466 38.775C130.667 38.8935 130.817 39.0166 130.918 39.1442C131.027 39.2719 131.109 39.436 131.164 39.6366C131.228 39.8372 131.269 40.0013 131.287 40.129C131.305 40.2566 131.319 40.4253 131.328 40.635L131.369 41.3189C131.424 42.1578 131.579 42.7732 131.834 43.1653V43.2474H130.083C129.91 42.8006 129.792 42.2125 129.728 41.483L129.673 40.7855C129.628 40.1472 129.468 39.7369 129.194 39.5546C128.921 39.3631 128.511 39.2673 127.963 39.2673H125.611V43.2474H123.97ZM125.611 37.927H127.868C128.524 37.927 129.026 37.8221 129.372 37.6124C129.728 37.3936 129.906 37.0015 129.906 36.4362C129.906 35.4697 129.286 34.9864 128.046 34.9864H125.611V37.927ZM135.509 35.5061C135.509 35.3147 135.495 35.1505 135.468 35.0138H137.191C137.164 35.1779 137.15 35.342 137.15 35.5061V43.2474H135.509V35.5061ZM132.363 35.0138H135.468C135.34 34.1202 134.77 33.6734 133.758 33.6734H132.363V35.0138ZM137.191 35.0138H140.296V33.6734H138.901C137.889 33.6734 137.319 34.1202 137.191 35.0138ZM147.539 33.3451C148.068 33.3451 148.537 33.4272 148.948 33.5913C149.358 33.7555 149.682 33.9971 149.919 34.3162C150.156 34.6262 150.274 35.0092 150.274 35.4651C150.274 36.0942 150.087 36.6231 149.714 37.0516C149.34 37.4802 148.875 37.854 148.319 38.1732L150.22 40.0196C150.402 39.7096 150.562 39.3859 150.698 39.0485C150.835 38.702 150.949 38.3555 151.04 38.009H153.16C153.023 38.5197 152.823 39.0667 152.558 39.6503C152.294 40.2339 151.957 40.7809 151.546 41.2915L153.557 43.2474H151.04L150.274 42.4951C150.074 42.6319 149.864 42.755 149.645 42.8644C149.426 42.9738 149.198 43.0696 148.961 43.1516C148.724 43.2246 148.474 43.2793 148.209 43.3158C147.945 43.3614 147.671 43.3841 147.389 43.3841C146.65 43.3841 146.016 43.2702 145.487 43.0422C144.959 42.8051 144.553 42.4769 144.27 42.0575C143.987 41.638 143.846 41.1548 143.846 40.6077C143.846 40.1427 143.915 39.746 144.051 39.4178C144.197 39.0804 144.402 38.7886 144.667 38.5424C144.94 38.2871 145.264 38.0546 145.638 37.8449C145.401 37.5714 145.209 37.3161 145.063 37.079C144.927 36.8328 144.826 36.5912 144.762 36.3541C144.708 36.117 144.68 35.8663 144.68 35.6019C144.68 35.1368 144.799 34.7357 145.036 34.3983C145.282 34.0609 145.62 33.801 146.048 33.6187C146.486 33.4363 146.983 33.3451 147.539 33.3451ZM146.828 39.0622C146.654 39.1898 146.504 39.322 146.376 39.4588C146.258 39.5956 146.162 39.7415 146.089 39.8965C146.025 40.0515 145.993 40.2247 145.993 40.4162C145.993 40.8083 146.139 41.1183 146.431 41.3463C146.723 41.5651 147.088 41.6745 147.525 41.6745C147.817 41.6745 148.091 41.638 148.346 41.5651C148.601 41.4921 148.834 41.3918 149.043 41.2642L146.828 39.0622ZM147.525 34.918C147.297 34.918 147.078 34.9773 146.869 35.0958C146.668 35.2052 146.568 35.4195 146.568 35.7386C146.568 35.9666 146.623 36.1854 146.732 36.3951C146.851 36.6049 147.006 36.8191 147.197 37.038C147.58 36.8283 147.872 36.6185 148.072 36.4088C148.282 36.1991 148.387 35.9575 148.387 35.6839C148.387 35.4104 148.296 35.2144 148.113 35.0958C147.931 34.9773 147.735 34.918 147.525 34.918ZM157.222 40.7855C157.222 40.2111 157.34 39.7779 157.577 39.4862C157.814 39.1944 158.243 39.0211 158.863 38.9664V41.907H164.115V43.2474H157.222V40.7855ZM157.222 35.8207V33.6734H163.978V35.0001H158.863V37.6534C158.243 37.5987 157.814 37.4255 157.577 37.1337C157.34 36.8419 157.222 36.4043 157.222 35.8207ZM158.863 38.9664C158.954 38.9573 159.091 38.9528 159.273 38.9528H163.623V37.6671H159.273C159.091 37.6671 158.954 37.6626 158.863 37.6534V38.9664ZM164.602 43.2474L167.967 38.351L164.684 33.6734H166.626L169.061 37.1884L171.359 33.6734H173.26L170.059 38.2826L173.506 43.2474H171.55L168.951 39.5135L166.517 43.2474H164.602ZM174.444 43.2474V33.6734H178.588C179.71 33.6734 180.567 33.9241 181.16 34.4256C181.761 34.918 182.062 35.6338 182.062 36.5729C182.062 37.5121 181.761 38.2324 181.16 38.7339C180.567 39.2263 179.71 39.4725 178.588 39.4725H176.085V43.2474H174.444ZM176.085 38.1868H178.424C179.099 38.1868 179.6 38.0592 179.929 37.8039C180.257 37.5486 180.421 37.1383 180.421 36.5729C180.421 36.0076 180.257 35.5973 179.929 35.342C179.6 35.0867 179.099 34.959 178.424 34.959H176.085V38.1868ZM190.999 42.0575C190.141 42.9602 188.993 43.4115 187.552 43.4115C186.111 43.4115 184.958 42.9602 184.092 42.0575C183.234 41.1548 182.806 39.9512 182.806 38.4467C182.806 36.9422 183.234 35.7432 184.092 34.8496C184.958 33.9561 186.111 33.5093 187.552 33.5093C188.993 33.5093 190.141 33.9561 190.999 34.8496C191.865 35.7432 192.298 36.9422 192.298 38.4467C192.298 39.9512 191.865 41.1548 190.999 42.0575ZM185.281 41.1411C185.81 41.7611 186.567 42.0711 187.552 42.0711C188.537 42.0711 189.289 41.7611 189.809 41.1411C190.337 40.512 190.602 39.6138 190.602 38.4467C190.602 37.2887 190.337 36.3997 189.809 35.7797C189.289 35.1596 188.537 34.8496 187.552 34.8496C186.567 34.8496 185.81 35.1596 185.281 35.7797C184.762 36.3997 184.502 37.2887 184.502 38.4467C184.502 39.6138 184.762 40.512 185.281 41.1411ZM193.825 43.2474V33.6734H198.215C199.191 33.6734 199.966 33.8968 200.54 34.3436C201.114 34.7904 201.402 35.3922 201.402 36.149C201.402 36.7325 201.242 37.2294 200.923 37.6398C200.604 38.0501 200.162 38.3419 199.596 38.5151C199.879 38.5698 200.121 38.6564 200.321 38.775C200.522 38.8935 200.672 39.0166 200.773 39.1442C200.882 39.2719 200.964 39.436 201.019 39.6366C201.083 39.8372 201.124 40.0013 201.142 40.129C201.16 40.2566 201.174 40.4253 201.183 40.635L201.224 41.3189C201.279 42.1578 201.434 42.7732 201.689 43.1653V43.2474H199.938C199.765 42.8006 199.646 42.2125 199.583 41.483L199.528 40.7855C199.482 40.1472 199.323 39.7369 199.049 39.5546C198.776 39.3631 198.365 39.2673 197.818 39.2673H195.466V43.2474H193.825ZM195.466 37.927H197.723C198.379 37.927 198.881 37.8221 199.227 37.6124C199.583 37.3936 199.76 37.0015 199.76 36.4362C199.76 35.4697 199.14 34.9864 197.9 34.9864H195.466V37.927ZM205.364 35.5061C205.364 35.3147 205.35 35.1505 205.323 35.0138H207.046C207.019 35.1779 207.005 35.342 207.005 35.5061V43.2474H205.364V35.5061ZM202.218 35.0138H205.323C205.195 34.1202 204.625 33.6734 203.613 33.6734H202.218V35.0138ZM207.046 35.0138H210.151V33.6734H208.756C207.744 33.6734 207.174 34.1202 207.046 35.0138ZM218.296 43.4115C216.892 43.4115 215.766 42.9602 214.918 42.0575C214.079 41.1548 213.66 39.9512 213.66 38.4467C213.66 36.9331 214.084 35.7341 214.932 34.8496C215.78 33.9561 216.933 33.5093 218.392 33.5093C219.559 33.5093 220.508 33.8056 221.237 34.3983C221.976 34.991 222.427 35.8253 222.591 36.9012H220.95C220.658 35.497 219.792 34.7949 218.351 34.7949C217.394 34.7949 216.655 35.1141 216.135 35.7523C215.616 36.3815 215.356 37.2796 215.356 38.4467C215.356 39.5956 215.616 40.4937 216.135 41.1411C216.664 41.7885 217.403 42.1122 218.351 42.1122C219.883 42.1122 220.781 41.2915 221.046 39.6503H222.7C222.573 40.8174 222.117 41.7383 221.333 42.4131C220.549 43.0787 219.536 43.4115 218.296 43.4115ZM231.683 42.0575C230.825 42.9602 229.677 43.4115 228.236 43.4115C226.795 43.4115 225.642 42.9602 224.776 42.0575C223.919 41.1548 223.49 39.9512 223.49 38.4467C223.49 36.9422 223.919 35.7432 224.776 34.8496C225.642 33.9561 226.795 33.5093 228.236 33.5093C229.677 33.5093 230.825 33.9561 231.683 34.8496C232.549 35.7432 232.982 36.9422 232.982 38.4467C232.982 39.9512 232.549 41.1548 231.683 42.0575ZM225.966 41.1411C226.494 41.7611 227.251 42.0711 228.236 42.0711C229.221 42.0711 229.973 41.7611 230.493 41.1411C231.022 40.512 231.286 39.6138 231.286 38.4467C231.286 37.2887 231.022 36.3997 230.493 35.7797C229.973 35.1596 229.221 34.8496 228.236 34.8496C227.251 34.8496 226.494 35.1596 225.966 35.7797C225.446 36.3997 225.186 37.2887 225.186 38.4467C225.186 39.6138 225.446 40.512 225.966 41.1411ZM237.38 43.2474V33.6734H239.022V41.907H244.109V43.2474H237.38ZM245.634 35.5061C245.634 35.3147 245.62 35.1505 245.593 35.0138H247.316C247.289 35.1779 247.275 35.342 247.275 35.5061V43.2474H245.634V35.5061ZM242.488 35.0138H245.593C245.465 34.1202 244.895 33.6734 243.883 33.6734H242.488V35.0138ZM247.316 35.0138H250.421V33.6734H249.026C248.014 33.6734 247.444 34.1202 247.316 35.0138ZM249.975 43.2474V33.6734H253.258C254.051 33.6734 254.685 33.801 255.159 34.0564C255.642 34.3117 256.007 34.722 256.253 35.2873C255.67 35.0867 254.995 34.9864 254.229 34.9864H251.617V41.9344H254.229C255.004 41.9344 255.674 41.8341 256.24 41.6335C255.993 42.1988 255.629 42.6091 255.145 42.8644C254.662 43.1197 254.033 43.2474 253.258 43.2474H249.975ZM256.24 41.6335C256.559 40.9131 256.718 39.8463 256.718 38.433C256.718 37.0471 256.563 35.9985 256.253 35.2873C257.712 35.7797 258.442 36.8283 258.442 38.433C258.442 39.2354 258.25 39.9102 257.867 40.4572C257.493 40.9952 256.951 41.3873 256.24 41.6335Z" fill="white"/>
<path d="M67.7528 11.9828V37.7827" stroke="white" stroke-opacity="0.34" stroke-width="0.448694"/>
<path d="M17.3854 41.5081L20.6798 34.9231C20.8631 34.5566 21.2356 34.3298 21.6453 34.3429C23.7838 34.4114 30.0693 34.5987 36.1199 33.4277C42.513 32.1903 43.9772 31.5216 52.0142 26.1936C52.8311 25.652 53.8972 26.3819 53.6759 27.3367L51.8003 35.4315C50.7635 39.9063 46.7771 43.0746 42.1838 43.0746H18.3533C17.5486 43.0746 17.0254 42.2277 17.3854 41.5081Z" fill="#F95303"/>
<path fill-rule="evenodd" clip-rule="evenodd" d="M18.413 10.4522L21.0463 5.78169C21.2381 5.44144 21.5984 5.23096 21.989 5.23096H27.1259H27.7701H31.2138H32.7736C33.3467 5.23096 33.8204 5.6777 33.854 6.2498L34.1007 10.4522L34.5279 28.6932C34.5403 29.2239 34.1665 29.6874 33.6409 29.7618C32.3571 29.9433 30.8415 30.0482 29.5982 29.9517C29.0826 29.9117 28.7146 29.4653 28.7122 28.9482L28.6278 11.1605C28.569 10.7539 28.2205 10.4522 27.8096 10.4522H25.1896C24.7794 10.4522 24.4044 10.6841 24.2213 11.0512L16.2943 26.9348L13.6886 32.156L8.52065 42.5114C8.33746 42.8784 7.9625 43.1103 7.55227 43.1103H1.85263C1.0244 43.1103 0.503113 42.218 0.909877 41.4965L6.17615 32.156L9.11992 26.9348L18.413 10.4522Z" fill="white"/>
</svg>
