<svg width="55" height="38" viewBox="0 0 55 38" fill="none" xmlns="http://www.w3.org/2000/svg">
<path d="M17.3853 36.2771L20.6796 29.6921C20.863 29.3256 21.2355 29.0988 21.6451 29.1119C23.7837 29.1804 30.0692 29.3678 36.1197 28.1967C42.5129 26.9593 43.977 26.2907 52.014 20.9626C52.8309 20.4211 53.897 21.151 53.6758 22.1058L51.8002 30.2006C50.7634 34.6754 46.777 37.8436 42.1837 37.8436H18.3532C17.5485 37.8436 17.0252 36.9968 17.3853 36.2771Z" fill="#F95303"/>
<path fill-rule="evenodd" clip-rule="evenodd" d="M18.413 5.22121L21.0463 0.550737C21.2381 0.210482 21.5984 0 21.989 0H27.1259H27.7701H31.2138H32.7736C33.3467 0 33.8204 0.446744 33.854 1.01884L34.1007 5.22121L34.5279 23.4623C34.5403 23.9929 34.1665 24.4565 33.6409 24.5308C32.3571 24.7123 30.8415 24.8172 29.5982 24.7208C29.0826 24.6808 28.7146 24.2343 28.7122 23.7172L28.6278 5.92954C28.569 5.52293 28.2205 5.22121 27.8096 5.22121H25.1896C24.7794 5.22121 24.4044 5.45315 24.2213 5.8202L16.2943 21.7039L13.6886 26.9251L8.52065 37.2804C8.33746 37.6474 7.9625 37.8794 7.55227 37.8794H1.85263C1.0244 37.8794 0.503113 36.987 0.909877 36.2656L6.17615 26.9251L9.11992 21.7039L18.413 5.22121Z" fill="white"/>
</svg>
