<svg width="10" height="10" viewBox="0 0 10 10" fill="none" xmlns="http://www.w3.org/2000/svg">
<g clip-path="url(#clip0_1_307)">
<path d="M8.20807 6.59998H3.25807C2.87445 6.59998 2.68263 6.59998 2.52506 6.64205C2.31522 6.69832 2.1239 6.80883 1.97032 6.96249C1.81674 7.11614 1.70631 7.30752 1.65015 7.51738" stroke="white" stroke-width="0.5"/>
<path d="M3.30015 2.88745H6.60015M3.30015 4.3312H5.36265M4.12515 9.07495C2.9586 9.07495 2.37491 9.07495 2.01273 8.71236C1.65015 8.35019 1.65015 7.7665 1.65015 6.59995V3.29995C1.65015 2.1334 1.65015 1.54971 2.01273 1.18754C2.37491 0.824951 2.9586 0.824951 4.12515 0.824951H5.77515C6.9417 0.824951 7.52538 0.824951 7.88756 1.18754C8.25015 1.54971 8.25015 2.1334 8.25015 3.29995M5.77515 9.07495C6.9417 9.07495 7.52538 9.07495 7.88756 8.71236C8.25015 8.35019 8.25015 7.7665 8.25015 6.59995V4.94995" stroke="white" stroke-width="0.5" stroke-linecap="round"/>
</g>
<defs>
<clipPath id="clip0_1_307">
<rect width="9.9" height="9.9" fill="white"/>
</clipPath>
</defs>
</svg>
