<svg width="10" height="10" viewBox="0 0 10 10" fill="none" xmlns="http://www.w3.org/2000/svg">
<path d="M1.54758 2.85656C1.54538 2.81599 1.53522 2.77625 1.51766 2.7396C1.50011 2.70296 1.47551 2.67013 1.44527 2.64299C1.41503 2.61585 1.37974 2.59493 1.34141 2.58143C1.30309 2.56793 1.26248 2.56211 1.22191 2.56431C1.18133 2.5665 1.14159 2.57667 1.10494 2.59422C1.0683 2.61177 1.03547 2.63637 1.00833 2.66661C0.981192 2.69686 0.960276 2.73215 0.946776 2.77047C0.933276 2.8088 0.927457 2.8494 0.929651 2.88998L1.54758 2.85656ZM1.94605 1.27545C1.89188 1.33532 1.86325 1.414 1.86629 1.49469C1.86934 1.57537 1.9038 1.65167 1.96233 1.70729C2.02086 1.76291 2.09881 1.79345 2.17955 1.79238C2.26029 1.79131 2.3374 1.75872 2.39444 1.70156L1.94605 1.27545ZM4.39878 8.17245C4.43318 8.19462 4.47164 8.20975 4.51192 8.21695C4.55221 8.22415 4.59353 8.22329 4.63348 8.21441C4.67343 8.20553 4.71122 8.18882 4.74467 8.16523C4.77811 8.14164 4.80655 8.11165 4.82832 8.077C4.8501 8.04235 4.86478 8.00372 4.87152 7.96335C4.87826 7.92298 4.87692 7.88168 4.86759 7.84183C4.85825 7.80198 4.8411 7.76439 4.81713 7.73121C4.79316 7.69804 4.76285 7.66995 4.72795 7.64858L4.39878 8.17245ZM6.23399 8.27393C6.15363 8.25713 6.0699 8.27295 6.0012 8.31789C5.93251 8.36284 5.88448 8.43323 5.86769 8.51359C5.8509 8.59394 5.86671 8.67768 5.91166 8.74637C5.9566 8.81507 6.027 8.8631 6.10735 8.87989L6.23399 8.27393ZM6.45344 6.4119L6.64113 6.2139L6.19233 5.78779L6.00464 5.98579L6.45344 6.4119ZM7.25946 6.13058L8.04734 6.58433L8.3563 6.04808L7.56801 5.59433L7.25946 6.13058ZM8.19955 7.52483L7.61339 8.14151L8.06219 8.56804L8.64794 7.95094L8.19955 7.52483ZM3.44796 6.58309C1.84911 4.89968 1.58099 3.47944 1.54758 2.85656L0.929651 2.88998C0.970901 3.6531 1.2943 5.214 2.99958 7.0092L3.44796 6.58309ZM4.01556 3.84533L4.13354 3.72075L3.68515 3.29464L3.56676 3.41921L4.01556 3.84533ZM4.22676 2.16975L3.7066 1.43426L3.20129 1.79149L3.72104 2.52698L4.22676 2.16975ZM3.79075 3.63206C3.71651 3.56051 3.64157 3.4897 3.56594 3.41963L3.56511 3.42045L3.56388 3.42169L3.54325 3.44561C3.50286 3.49916 3.47087 3.55856 3.44838 3.62175C3.40795 3.73519 3.3865 3.88534 3.41373 4.07261C3.46735 4.44056 3.70866 4.93515 4.33855 5.59886L4.78735 5.17234C4.1983 4.55235 4.0531 4.17079 4.02588 3.98269C4.01268 3.89194 4.02588 3.8445 4.03124 3.82924L4.03454 3.8214L4.02299 3.83666L4.01556 3.84533L3.79075 3.63206ZM4.33855 5.59845C4.96679 6.2601 5.44116 6.51998 5.80293 6.57896C5.98896 6.60908 6.13953 6.58474 6.25338 6.53978C6.31667 6.51519 6.37548 6.48035 6.42745 6.43665L6.44189 6.42263L6.44766 6.41685L6.45055 6.41438L6.45179 6.41314L6.4522 6.41231C6.4522 6.41231 6.45303 6.4119 6.22863 6.19864C6.00423 5.98579 6.00464 5.98538 6.00464 5.98496L6.00546 5.98455L6.00629 5.98331L6.00876 5.98125L6.02815 5.96393C6.032 5.96173 6.03131 5.96186 6.02609 5.96434C6.01784 5.96764 5.98071 5.98084 5.90234 5.96805C5.73651 5.94083 5.37846 5.7948 4.78735 5.17234L4.33855 5.59845ZM3.7066 1.43426C3.28833 0.84274 2.45178 0.742502 1.94605 1.27545L2.39444 1.70156C2.61018 1.47469 2.99009 1.49243 3.20129 1.79149L3.7066 1.43426ZM7.61339 8.14151C7.4983 8.26279 7.37826 8.32796 7.26111 8.33951L7.32175 8.95496C7.62989 8.92485 7.87945 8.76068 8.06219 8.56804L7.61339 8.14151ZM4.13354 3.72075C4.53284 3.30041 4.56089 2.64289 4.22676 2.16975L3.72145 2.52698C3.89553 2.77324 3.86871 3.10159 3.68515 3.29464L4.13354 3.72075ZM8.04734 6.58433C8.386 6.77944 8.45241 7.25876 8.19955 7.52483L8.64794 7.95094C9.18625 7.38416 9.0295 6.43583 8.3563 6.04808L8.04734 6.58433ZM6.64113 6.2139C6.79994 6.04643 7.04785 6.00889 7.25946 6.13058L7.56801 5.59433C7.11468 5.33363 6.55326 5.40829 6.19233 5.78779L6.64113 6.2139ZM4.72795 7.64858C4.32246 7.39365 3.89058 7.0488 3.44796 6.58309L2.99958 7.0092C3.4756 7.51039 3.94709 7.88865 4.39878 8.17245L4.72795 7.64858ZM7.2607 8.33951C6.91711 8.36949 6.57097 8.34738 6.23399 8.27393L6.10735 8.87989C6.50604 8.96604 6.91548 8.99135 7.32175 8.95496L7.2607 8.33951Z" fill="white"/>
</svg>
