<svg width="10" height="10" viewBox="0 0 10 10" fill="none" xmlns="http://www.w3.org/2000/svg">
<g clip-path="url(#clip0_1_304)">
<path d="M4.64062 7.42505C4.64062 7.5071 4.67322 7.58579 4.73124 7.64381C4.78926 7.70183 4.86795 7.73442 4.95 7.73442C5.03205 7.73442 5.11074 7.70183 5.16876 7.64381C5.22678 7.58579 5.25937 7.5071 5.25937 7.42505V6.18755C5.25937 6.1055 5.22678 6.02681 5.16876 5.96879C5.11074 5.91077 5.03205 5.87817 4.95 5.87817C4.86795 5.87817 4.78926 5.91077 4.73124 5.96879C4.67322 6.02681 4.64062 6.1055 4.64062 6.18755V7.42505Z" fill="white"/>
<path fill-rule="evenodd" clip-rule="evenodd" d="M4.95 0.515625C4.65795 0.515625 4.39271 0.599363 4.10438 0.7392C3.82635 0.8745 3.5046 1.07415 3.10324 1.3233L2.2506 1.85254C1.8711 2.08849 1.56626 2.27741 1.33196 2.45685C1.089 2.64248 0.90255 2.83223 0.767663 3.07849C0.633187 3.32393 0.572962 3.58545 0.543675 3.89441C0.515625 4.19348 0.515625 4.55978 0.515625 5.01889V5.68425C0.515625 6.46965 0.515625 7.08964 0.578738 7.57433C0.643088 8.07139 0.779213 8.47275 1.08611 8.78996C1.39425 9.10883 1.78613 9.25155 2.27205 9.31879C2.7423 9.38438 3.34373 9.38438 4.10108 9.38438H5.79893C6.55628 9.38438 7.1577 9.38438 7.62795 9.31879C8.11346 9.25155 8.50575 9.10883 8.8143 8.78996C9.12079 8.47275 9.25691 8.07139 9.32168 7.57433C9.38438 7.08964 9.38438 6.46965 9.38438 5.68425V5.01889C9.38438 4.55978 9.38438 4.19389 9.35633 3.89441C9.32745 3.58504 9.26681 3.32393 9.13234 3.07849C8.99745 2.83223 8.81059 2.64289 8.56804 2.45685C8.33374 2.277 8.02931 2.08849 7.6494 1.85254L6.79676 1.3233C6.3954 1.07415 6.07365 0.8745 5.79521 0.7392C5.5077 0.59895 5.24246 0.515625 4.95 0.515625ZM3.4155 1.8579C3.83419 1.59803 4.12913 1.4157 4.37539 1.29566C4.61505 1.17893 4.785 1.13438 4.95 1.13438C5.115 1.13438 5.28495 1.17893 5.52461 1.29566C5.77129 1.41529 6.06581 1.59803 6.4845 1.8579L7.3095 2.36981C7.70591 2.61608 7.98435 2.78891 8.19225 2.94814C8.39396 3.10283 8.50988 3.23029 8.58949 3.37549C8.6691 3.5211 8.71571 3.69146 8.74005 3.95216C8.76521 4.21946 8.76563 4.55648 8.76563 5.03415V5.66156C8.76563 6.47419 8.7648 7.05416 8.70788 7.4943C8.65178 7.9266 8.54576 8.1774 8.36963 8.36014C8.19431 8.54123 7.95589 8.64889 7.54298 8.70623C7.11975 8.7648 6.56164 8.76563 5.775 8.76563H4.125C3.33795 8.76563 2.78025 8.7648 2.35703 8.70623C1.94411 8.64848 1.70569 8.54123 1.53079 8.35973C1.35424 8.1774 1.24823 7.9266 1.19254 7.4943C1.13479 7.05416 1.13438 6.4746 1.13438 5.66156V5.03415C1.13438 4.55648 1.13438 4.21946 1.15995 3.95216C1.18429 3.69146 1.2309 3.5211 1.31051 3.37549C1.39013 3.23029 1.50604 3.10283 1.70816 2.94814C1.91565 2.78891 2.19409 2.61608 2.5905 2.36981L3.4155 1.8579Z" fill="white"/>
</g>
<defs>
<clipPath id="clip0_1_304">
<rect width="9.9" height="9.9" fill="white"/>
</clipPath>
</defs>
</svg>
