<svg width="10" height="10" viewBox="0 0 10 10" fill="none" xmlns="http://www.w3.org/2000/svg">
<g clip-path="url(#clip0_1_311)">
<path d="M9.06835 4.12495C9.05309 3.58416 9.00194 3.23931 8.82869 2.9452C8.58201 2.52651 8.13816 2.29345 7.25088 1.82815L6.42588 1.39503C5.70153 1.01511 5.33935 0.824951 4.94995 0.824951C4.56055 0.824951 4.19838 1.0147 3.47403 1.39503L2.64903 1.82815C1.76174 2.29345 1.31789 2.52651 1.07121 2.9452C0.824951 3.36348 0.824951 3.88446 0.824951 4.92603V4.97429C0.824951 6.01544 0.824951 6.53643 1.07121 6.9547C1.31789 7.37339 1.76174 7.60645 2.64903 8.07216L3.47403 8.50488C4.19838 8.88479 4.56055 9.07495 4.94995 9.07495C5.33935 9.07495 5.70153 8.8852 6.42588 8.50488L7.25088 8.07175C8.13816 7.60604 8.58201 7.37339 8.82869 6.9547C9.00194 6.66059 9.05309 6.31574 9.06835 5.77495M8.66245 3.0937L7.01245 3.9187M7.01245 3.9187L6.8062 4.02183L4.94995 4.94995M7.01245 3.9187V5.36245M7.01245 3.9187L3.0937 1.8562M4.94995 4.94995L1.23745 3.0937M4.94995 4.94995V8.8687" stroke="white" stroke-width="0.5" stroke-linecap="round"/>
</g>
<defs>
<clipPath id="clip0_1_311">
<rect width="9.9" height="9.9" fill="white"/>
</clipPath>
</defs>
</svg>
