<svg width="10" height="10" viewBox="0 0 10 10" fill="none" xmlns="http://www.w3.org/2000/svg">
<g clip-path="url(#clip0_1_313)">
<path d="M4.33125 1.23752C4.75957 1.23752 5.17827 1.36454 5.53441 1.6025C5.89054 1.84046 6.16812 2.17868 6.33203 2.5744C6.49594 2.97012 6.53883 3.40555 6.45527 3.82564C6.3717 4.24573 6.16545 4.63161 5.86258 4.93448C5.55971 5.23735 5.17383 5.4436 4.75374 5.52716C4.33365 5.61072 3.89822 5.56784 3.5025 5.40393C3.10679 5.24002 2.76856 4.96244 2.5306 4.60631C2.29264 4.25017 2.16563 3.83147 2.16563 3.40315C2.16563 2.82879 2.39379 2.27795 2.79992 1.87182C3.20606 1.46569 3.75689 1.23752 4.33125 1.23752ZM4.33125 0.618774C3.78055 0.618774 3.24222 0.782075 2.78434 1.08803C2.32645 1.39398 1.96957 1.82884 1.75882 2.33762C1.54808 2.84639 1.49294 3.40624 1.60038 3.94635C1.70781 4.48647 1.973 4.9826 2.3624 5.372C2.7518 5.7614 3.24793 6.02659 3.78805 6.13402C4.32816 6.24146 4.88801 6.18632 5.39679 5.97558C5.90556 5.76483 6.34042 5.40795 6.64638 4.95007C6.95233 4.49218 7.11563 3.95385 7.11563 3.40315C7.11563 2.66469 6.82227 1.95647 6.3001 1.4343C5.77793 0.912127 5.06971 0.618774 4.33125 0.618774Z" fill="white"/>
<path d="M8.6626 3.40318C8.66291 2.83443 8.55088 2.27122 8.33294 1.74588C8.115 1.22054 7.79544 0.743426 7.39262 0.341919L6.95485 0.779685C7.64996 1.4745 8.04102 2.41669 8.04223 3.39951C8.04343 4.38233 7.65468 5.32548 6.96128 6.022C6.26788 6.71851 5.32648 7.11149 4.34366 7.11469C3.36085 7.11788 2.41691 6.73105 1.71899 6.03906L1.70723 6.0273L1.26978 6.46476C1.67135 6.86757 2.14853 7.18709 2.67392 7.40498C3.19931 7.62286 3.76257 7.73483 4.33135 7.73444V8.66256H3.09385V9.28131H6.1876V8.66256H4.9501V7.68494C5.9798 7.53566 6.92145 7.02096 7.60306 6.23484C8.28466 5.44873 8.66074 4.44365 8.6626 3.40318Z" fill="white"/>
</g>
<defs>
<clipPath id="clip0_1_313">
<rect width="9.9" height="9.9" fill="white"/>
</clipPath>
</defs>
</svg>
